HIERARCHY
ROOT SimulationBone
{
	OFFSET 0.000000 0.000000 0.000000
	CHANNELS 6 Xposition Yposition Zposition Zrotation Yrotation Xrotation 
	JOINT Hips
	{
		OFFSET 0.000000 0.000000 0.000000
		CHANNELS 6 Xposition Yposition Zposition Zrotation Yrotation Xrotation 
		JOINT LeftUpLeg
		{
			OFFSET 0.103462 1.857827 10.548504
			CHANNELS 3 Zrotation Yrotation Xrotation
			JOINT LeftLeg
			{
				OFFSET 43.500000 -0.000031 0.000000
				CHANNELS 3 Zrotation Yrotation Xrotation
				JOINT LeftFoot
				{
					OFFSET 42.372192 0.000015 0.000000
					CHANNELS 3 Zrotation Yrotation Xrotation
					JOINT LeftToe
					{
						OFFSET 17.300001 0.000000 -0.000009
						CHANNELS 3 Zrotation Yrotation Xrotation
						End Site
						{
							OFFSET 0.000000 0.000000 0.000000
						}
					}
				}
			}
		}
		JOINT RightUpLeg
		{
			OFFSET 0.103456 1.857828 -10.548508
			CHANNELS 3 Zrotation Yrotation Xrotation
			JOINT RightLeg
			{
				OFFSET 43.500046 -0.000015 0.000008
				CHANNELS 3 Zrotation Yrotation Xrotation
				JOINT RightFoot
				{
					OFFSET 42.372261 -0.000015 0.000002
					CHANNELS 3 Zrotation Yrotation Xrotation
					JOINT RightToe
					{
						OFFSET 17.299999 -0.000003 0.000011
						CHANNELS 3 Zrotation Yrotation Xrotation
						End Site
						{
							OFFSET 0.000000 0.000000 0.000000
						}
					}
				}
			}
		}
		JOINT Spine
		{
			OFFSET 6.901966 -2.603728 -0.000009
			CHANNELS 3 Zrotation Yrotation Xrotation
			JOINT Spine1
			{
				OFFSET 12.588099 0.000000 0.000013
				CHANNELS 3 Zrotation Yrotation Xrotation
				JOINT Spine2
				{
					OFFSET 12.343203 0.000005 -0.000004
					CHANNELS 3 Zrotation Yrotation Xrotation
					JOINT Neck
					{
						OFFSET 25.832897 -0.000004 0.000004
						CHANNELS 3 Zrotation Yrotation Xrotation
						JOINT Head
						{
							OFFSET 11.766615 0.000003 -0.000003
							CHANNELS 3 Zrotation Yrotation Xrotation
							End Site
							{
								OFFSET 0.000000 0.000000 0.000000
							}
						}
					}
					JOINT LeftShoulder
					{
						OFFSET 19.745903 -1.480370 6.000102
						CHANNELS 3 Zrotation Yrotation Xrotation
						JOINT LeftArm
						{
							OFFSET 11.284127 -0.000006 -0.000019
							CHANNELS 3 Zrotation Yrotation Xrotation
							JOINT LeftForeArm
							{
								OFFSET 33.000042 0.000001 0.000035
								CHANNELS 3 Zrotation Yrotation Xrotation
								JOINT LeftHand
								{
									OFFSET 25.200005 0.000015 0.000003
									CHANNELS 3 Zrotation Yrotation Xrotation
									End Site
									{
										OFFSET 0.000000 0.000000 0.000000
									}
								}
							}
						}
					}
					JOINT RightShoulder
					{
						OFFSET 19.746101 -1.480375 -6.000084
						CHANNELS 3 Zrotation Yrotation Xrotation
						JOINT RightArm
						{
							OFFSET 11.284132 -0.000016 -0.000012
							CHANNELS 3 Zrotation Yrotation Xrotation
							JOINT RightForeArm
							{
								OFFSET 33.000092 0.000018 0.000010
								CHANNELS 3 Zrotation Yrotation Xrotation
								JOINT RightHand
								{
									OFFSET 25.199774 0.000137 0.000425
									CHANNELS 3 Zrotation Yrotation Xrotation
									End Site
									{
										OFFSET 0.000000 0.000000 0.000000
									}
								}
							}
						}
					}
				}
			}
		}
	}
}
MOTION
Frames: 11
Frame Time: 0.016667
95.399955 0.000000 -233.827956 0.000000 -56.987282 0.000000 4.097284 90.634872 -0.186165 103.009001 -1.527266 179.242060 -171.839636 -6.841798 167.601122 -21.745324 -1.257542 -9.499488 82.179633 3.553893 -14.451237 21.454551 0.003091 -0.000000 177.145013 10.635103 -179.592639 -23.333999 6.073024 7.585642 75.126295 -3.814086 6.175668 21.454557 -0.003111 -0.000019 8.993144 -0.795888 -0.081857 7.975710 -1.584289 -0.218328 7.657472 -1.585434 -0.208749 7.677344 -9.035142 -18.362859 -17.241669 15.527443 -25.686433 -164.873074 -78.998112 -16.931323 15.906939 60.569774 37.683734 -33.727634 -16.258085 1.387789 7.550270 -0.991822 21.512729 -157.528081 71.920611 24.491882 6.283351 -58.275063 -35.972655 -36.960489 18.529304 -1.637127 1.663991 20.687545 -14.436768 
95.415937 0.000000 -233.692078 0.000000 -56.816498 0.000000 4.329993 90.613953 -0.128615 103.352781 -1.448040 179.368457 -171.207181 -7.025066 167.459164 -21.485900 -1.198638 -9.222661 81.937047 3.288957 -14.633904 21.454550 0.003096 0.000001 177.717577 10.530702 -178.962671 -23.556827 5.909649 7.420012 75.439350 -3.742913 6.046259 21.454557 -0.003105 -0.000019 8.947009 -0.810765 -0.139368 7.884313 -1.610204 -0.333598 7.566061 -1.612047 -0.323869 8.205415 -8.877854 -18.553588 -17.073318 15.635635 -25.849259 -164.772228 -78.789530 -17.035460 15.896451 60.440853 37.495739 -33.068751 -16.296850 1.377046 7.742675 -1.041510 20.972712 -156.536256 71.569863 25.518609 7.606798 -58.537998 -36.528030 -35.804545 18.309087 -1.595031 2.880119 20.591710 -12.976146 
95.441675 0.000000 -233.563664 0.000000 -56.672738 0.000000 4.547926 90.597282 -0.068145 103.688148 -1.354283 179.528367 -170.606623 -7.237196 167.338583 -21.249009 -1.168600 -8.961153 81.683857 3.050475 -14.738609 21.454553 0.003098 0.000001 178.314765 10.402693 -178.577208 -23.671411 5.844067 7.397245 75.706287 -3.758776 5.968135 21.454557 -0.003107 -0.000018 8.912225 -0.822178 -0.194817 7.815571 -1.629377 -0.444662 7.497328 -1.631898 -0.434815 8.657243 -8.737899 -18.723985 -16.833365 15.798928 -26.004442 -164.589676 -78.661801 -17.222127 15.668031 60.387811 37.143664 -32.442407 -16.163451 1.353882 8.003342 -1.174159 20.440622 -155.588020 71.279400 26.500169 8.848697 -58.802299 -37.189624 -34.672792 18.100652 -1.554584 4.109669 20.187662 -11.366995 
95.476691 0.000000 -233.442408 0.000000 -56.555333 0.000000 4.753310 90.583360 -0.004384 104.016628 -1.255612 179.711908 -170.037313 -7.460265 167.244442 -21.040193 -1.157846 -8.724676 81.433313 2.849734 -14.753947 21.454555 0.003098 0.000001 178.920768 10.260652 -178.347897 -23.719551 5.834842 7.462933 75.942390 -3.826505 5.929539 21.454557 -0.003112 -0.000017 8.887505 -0.831618 -0.247780 7.766920 -1.644788 -0.550766 7.448693 -1.647957 -0.540820 9.063365 -8.607963 -18.888344 -16.575632 15.995316 -26.165442 -164.375189 -78.592905 -17.440880 15.327985 60.389370 36.696082 -31.919014 -15.960545 1.329372 8.313178 -1.297847 20.049525 -154.731655 71.048364 27.386533 10.066900 -59.071111 -37.929699 -33.645111 17.917987 -1.519267 5.303187 19.579509 -9.731397 
95.520504 0.000000 -233.328007 0.000000 -56.463613 0.000000 4.948371 90.570686 0.063103 104.339731 -1.161507 179.909096 -169.498780 -7.676409 167.182212 -20.864903 -1.156711 -8.522851 81.198729 2.698135 -14.668702 21.454557 0.003096 0.000001 179.519610 10.112595 -178.186194 -23.742666 5.840073 7.563107 76.162749 -3.910734 5.919108 21.454558 -0.003113 -0.000017 8.871565 -0.840580 -0.297829 7.735808 -1.659433 -0.651146 7.417592 -1.663207 -0.641106 9.454160 -8.480330 -19.060655 -16.354046 16.202616 -26.346204 -164.177173 -78.560939 -17.642631 14.982022 60.424981 36.220929 -31.568102 -15.791034 1.311727 8.651270 -1.322616 19.933525 -154.014726 70.876911 28.128385 11.320151 -59.347553 -38.721639 -32.801170 17.775308 -1.491595 6.421323 18.877968 -8.182780 
95.572634 0.000000 -233.220158 0.000000 -56.396903 0.000000 5.134480 90.557675 0.134129 104.658916 -1.078723 -179.891803 -168.990335 -7.870890 167.148286 -20.728976 -1.153840 -8.360438 80.993128 2.600957 -14.483242 21.454556 0.003094 0.000001 -179.903717 9.964471 -178.032773 -23.774994 5.831809 7.658201 76.379353 -3.986172 5.926287 21.454559 -0.003107 -0.000017 8.863660 -0.850178 -0.343783 7.720741 -1.675598 -0.743503 7.402522 -1.679920 -0.733364 9.848477 -8.348730 -19.252942 -16.202048 16.400315 -26.556924 -164.031919 -78.550362 -17.790580 14.713846 60.479964 35.790516 -31.439122 -15.737316 1.305892 8.986386 -1.195636 20.167094 -153.467599 70.762424 28.694252 12.644086 -59.630654 -39.531783 -32.191304 17.680880 -1.472493 7.424691 18.145825 -6.830494 
95.632602 0.000000 -233.118557 0.000000 -56.354529 0.000000 5.309569 90.542397 0.205832 104.975596 -1.003473 -179.709161 -168.509837 -8.040998 167.101534 -20.640072 -1.131326 -8.223004 80.827857 2.538737 -14.243771 21.454555 0.003093 0.000001 -179.359087 9.820300 -177.945634 -23.821931 5.838091 7.765886 76.592005 -4.068265 5.942766 21.454560 -0.003102 -0.000017 8.865184 -0.860001 -0.381444 7.724427 -1.692701 -0.819433 7.406206 -1.697475 -0.809191 10.219564 -8.213972 -19.470349 -16.070559 16.575460 -26.790624 -163.924688 -78.570583 -17.899610 14.516065 60.559126 35.491626 -31.503533 -15.799315 1.310925 9.246156 -1.004317 20.581522 -153.052202 70.688411 29.123668 13.976951 -59.904773 -40.292473 -31.749143 17.618676 -1.459025 8.233181 17.237374 -5.800367 
95.699928 0.000000 -233.022901 0.000000 -56.335817 0.000000 5.471077 90.523443 0.275169 105.290464 -0.927663 -179.560851 -168.054538 -8.187548 167.004703 -20.602199 -1.074224 -8.098288 80.705781 2.493313 -13.991687 21.454555 0.003094 0.000001 -178.852305 9.680806 -177.972843 -23.880351 5.881451 7.899351 76.795912 -4.168753 5.960802 21.454557 -0.003104 -0.000018 8.877428 -0.868848 -0.407135 7.749365 -1.708557 -0.871520 7.431154 -1.713653 -0.861184 10.548136 -8.076146 -19.715110 -15.923250 16.722846 -27.041627 -163.823460 -78.626041 -18.002224 14.361290 60.663277 35.378333 -31.718166 -15.950372 1.324926 9.367677 -0.850793 20.982848 -152.733047 70.632513 29.453750 15.228457 -60.148557 -40.926013 -31.396026 17.569459 -1.448465 8.787672 15.994211 -5.182246 
95.774131 0.000000 -232.932886 0.000000 -56.340093 0.000000 5.617865 90.501846 0.340990 105.601431 -0.837048 -179.456280 -167.621626 -8.315908 166.873925 -20.603184 -0.985772 -8.001969 80.597440 2.478104 -13.703940 21.454555 0.003094 -0.000000 -178.379666 9.529692 -178.006013 -23.942504 5.906243 7.996826 76.980029 -4.243933 5.973376 21.454555 -0.003108 -0.000018 8.899135 -0.873902 -0.422271 7.793051 -1.717458 -0.902410 7.474849 -1.722748 -0.892020 10.890189 -7.924406 -19.983865 -15.858369 16.859108 -27.328334 -163.679198 -78.676506 -18.148615 14.232518 60.758178 35.358990 -32.058107 -16.140285 1.344320 9.372691 -0.767497 21.324954 -152.541317 70.565372 29.653015 16.304195 -60.324871 -41.361561 -31.119796 17.525874 -1.439993 9.164963 14.401522 -4.895032 
95.854732 0.000000 -232.848209 0.000000 -56.366684 0.000000 5.748812 90.479038 0.402506 105.903211 -0.721724 -179.399965 -167.210224 -8.430153 166.741621 -20.626417 -0.877780 -7.955229 80.472707 2.511131 -13.355969 21.454554 0.003090 -0.000001 -177.940393 9.354127 -177.936301 -24.002280 5.859908 7.998493 77.135487 -4.251303 5.974550 21.454555 -0.003109 -0.000017 8.928147 -0.873019 -0.429502 7.851202 -1.714976 -0.917237 7.532995 -1.720349 -0.906860 11.298959 -7.760166 -20.269659 -15.967443 17.013308 -27.670657 -163.452516 -78.681347 -18.379207 14.115082 60.808916 35.328188 -32.506374 -16.322581 1.365528 9.299253 -0.756648 21.604928 -152.501936 70.469435 29.696128 17.126346 -60.411374 -41.563325 -30.922060 17.490118 -1.433652 9.453105 12.505103 -4.821129 
95.941250 0.000000 -232.768565 0.000000 -56.414917 0.000000 5.861477 90.455612 0.458387 106.180477 -0.595507 -179.385814 -166.826920 -8.523309 166.652367 -20.653386 -0.777924 -7.973247 80.330537 2.595695 -12.981539 21.454553 0.003087 -0.000001 -177.552420 9.179791 -177.807801 -24.063779 5.781040 7.926890 77.268331 -4.208717 5.960779 21.454557 -0.003111 -0.000016 8.961256 -0.868366 -0.431340 7.917428 -1.705285 -0.921087 7.599212 -1.710673 -0.910768 11.742248 -7.646818 -20.558910 -16.179521 17.246221 -28.068675 -163.156060 -78.643263 -18.681211 13.994809 60.813967 35.272356 -33.059966 -16.489158 1.388068 9.165437 -0.765687 21.842837 -152.548107 70.381012 29.650908 17.700332 -60.457301 -41.642521 -30.792998 17.490721 -1.431065 9.649505 10.468065 -4.861023 
